<mxfile host="drawio-plugin" modified="2024-03-11T08:34:46.681Z" agent="5.0 (Macintosh; Intel Mac OS X 10_15_7) AppleWebKit/537.36 (KHTML, like Gecko) Chrome/111.0.0.0 Safari/537.36" version="20.5.3" etag="gn8oFUvzIGzW_LNnaHxa" type="embed"><diagram id="o5hUtTfPNjr9lJUo1nU2" name="Page-1"><mxGraphModel dx="1531" dy="504" grid="1" gridSize="10" guides="1" tooltips="1" connect="1" arrows="1" fold="1" page="1" pageScale="1" pageWidth="850" pageHeight="1100" math="0" shadow="0"><root><mxCell id="0"/><mxCell id="1" parent="0"/><mxCell id="3" value="Kafka" style="swimlane;childLayout=stackLayout;horizontal=1;startSize=30;horizontalStack=0;rounded=1;fontSize=14;fontStyle=0;strokeWidth=2;resizeParent=0;resizeLast=1;shadow=0;dashed=0;align=center;" vertex="1" parent="1"><mxGeometry x="250" y="130" width="160" height="120" as="geometry"/></mxCell><mxCell id="4" value="service -&gt; config -&gt; &#10;UMsrializer" style="align=left;strokeColor=none;fillColor=none;spacingLeft=4;fontSize=12;verticalAlign=top;resizable=0;rotatable=0;part=1;" vertex="1" parent="3"><mxGeometry y="30" width="160" height="90" as="geometry"/></mxCell><mxCell id="5" value="putMessage" style="html=1;shadow=0;dashed=0;align=center;verticalAlign=middle;shape=mxgraph.arrows2.arrow;dy=0.6;dx=40;notch=0;" vertex="1" parent="1"><mxGeometry x="140" y="155" width="110" height="70" as="geometry"/></mxCell><mxCell id="8" value="UM" style="rounded=1;arcSize=10;whiteSpace=wrap;html=1;align=center;" vertex="1" parent="1"><mxGeometry x="40" y="170" width="100" height="40" as="geometry"/></mxCell><mxCell id="9" value="Entity" style="swimlane;childLayout=stackLayout;horizontal=1;startSize=30;horizontalStack=0;rounded=1;fontSize=14;fontStyle=0;strokeWidth=2;resizeParent=0;resizeLast=1;shadow=0;dashed=0;align=center;" vertex="1" parent="1"><mxGeometry x="-220" y="130" width="160" height="120" as="geometry"/></mxCell><mxCell id="10" value="+Attribute1&#10;+Attribute2&#10;+Attribute3" style="align=left;strokeColor=none;fillColor=none;spacingLeft=4;fontSize=12;verticalAlign=top;resizable=0;rotatable=0;part=1;" vertex="1" parent="9"><mxGeometry y="30" width="160" height="90" as="geometry"/></mxCell><mxCell id="12" value="convertIntoUM" style="html=1;shadow=0;dashed=0;align=center;verticalAlign=middle;shape=mxgraph.arrows2.arrow;dy=0.6;dx=40;notch=0;" vertex="1" parent="1"><mxGeometry x="-60" y="155" width="100" height="70" as="geometry"/></mxCell></root></mxGraphModel></diagram></mxfile>